<?xml version="1.0"?>
<svg xmlns="http://www.w3.org/2000/svg" id="Layer_1" enable-background="new 0 0 512 512" height="512" viewBox="0 0 512 512" width="512" class=""><g><g><path d="m200.012 133.801v-52.134c0-34.057 27.609-61.667 61.667-61.667h-61.012c-34.058 0-61.667 27.609-61.667 61.667v52.134c0 63.368 50.757 115.724 114.123 116.196 10.901.081 21.447-1.372 31.455-4.125-48.88-13.557-84.566-58.94-84.566-112.071z" fill="#cee1f2" data-original="#CEE1F2" class="active-path" style="fill:#000000" data-old_color="#cee1f2"/><g fill="#0023c4"><path d="m271.846 310.003-30.846-.003c-100.355 0-182 81.645-182 182 0 11.046 8.954 20 20 20s20-8.954 20-20c0-78.299 63.701-142 142-142l30.59.002c6.339.025 8.877 4.629 9.674 6.607.815 2.025 2.209 7.226-2.466 11.757l-112.719 109.274c-7.931 7.688-8.127 20.351-.439 28.281 3.923 4.046 9.14 6.079 14.362 6.079 5.015 0 10.034-1.874 13.919-5.64l112.719-109.274c14.876-14.421 19.479-36.176 11.727-55.422-7.715-19.151-26.013-31.579-46.521-31.661z" data-original="#0023C4" class="" style="fill:#69E781" data-old_color="#0023C4"/><path d="m253.984 270c-.339 0 .34.003 0 0z" data-original="#0023C4" class="" style="fill:#69E781" data-old_color="#0023C4"/><path d="m424 88h-35v-6.333c0-45.031-36.636-81.667-81.667-81.667h-106.666c-45.031 0-81.667 36.636-81.667 81.667v52.134c0 74.548 61.11 135.648 134.984 136.199 53.168-.004 101.475-31.244 123.254-79.817 4.519-10.079.012-21.913-10.067-26.433-10.077-4.517-21.912-.01-26.433 10.067-15.33 34.193-49.312 56.183-86.738 56.183-51.982-.388-95-43.544-95-96.199v-52.134c0-22.976 18.691-41.667 41.667-41.667h106.666c22.976 0 41.667 18.691 41.667 41.667v6.333h-128c-11.046 0-20 8.954-20 20s8.954 20 20 20h203c11.046 0 20-8.954 20-20s-8.954-20-20-20z" data-original="#0023C4" class="" style="fill:#69E781" data-old_color="#0023C4"/></g><path d="m349 512h-53c-11.046 0-20-8.954-20-20s8.954-20 20-20h53c11.046 0 20 8.954 20 20s-8.954 20-20 20zm104-20c0-55.104-24.565-106.64-67.398-141.394-8.577-6.962-21.173-5.648-28.132 2.929-6.96 8.577-5.648 21.173 2.929 28.133 33.428 27.123 52.601 67.338 52.601 110.332 0 11.046 8.954 20 20 20s20-8.954 20-20z" fill="#ff5cf3" data-original="#FF5CF3" class="" style="fill:#00AF80" data-old_color="#ff5cf3"/></g></g> </svg>
