<?xml version="1.0" encoding="utf-8"?>
<!-- Generator: Adobe Illustrator 24.1.0, SVG Export Plug-In . SVG Version: 6.00 Build 0)  -->
<svg version="1.1" id="Capa_1" xmlns="http://www.w3.org/2000/svg" xmlns:xlink="http://www.w3.org/1999/xlink" x="0px" y="0px"
	 viewBox="0 0 400 400" style="enable-background:new 0 0 400 400;" xml:space="preserve">
<g>
	<path d="M33.41,275.27c3.53-14.61-2.87-28.33-14.28-40.53c-3.31-3.54-6.05-7.66-8.74-11.72c-10.13-15.27-10.1-30.61-0.05-45.97
		c4.32-6.61,9.33-12.69,14.36-18.74c6.55-7.9,9.56-16.65,9.1-27c-0.46-10.51-1.25-21.07,0.39-31.59
		c1.95-12.45,8.66-21.34,19.68-27.2c9-4.79,18.87-7.11,28.61-9.55c11.1-2.78,19.14-8.98,25-18.62c3.35-5.51,7.04-10.83,10.9-16
		c12.8-17.16,26.55-21.8,47.14-15.74c7.84,2.31,15.53,5.17,23.22,7.99c8.2,3.01,16.22,2.87,24.46,0.01
		c10.83-3.75,21.38-8.4,32.88-10.15c11.47-1.74,21.11,1.58,29.55,9.18c7.23,6.52,12.62,14.54,17.43,22.83
		c6.77,11.67,16.45,18.56,29.59,21.41c7.97,1.73,15.84,4.12,23.32,7.59c14.87,6.9,21.93,18.88,22.43,34.87
		c0.29,9.44,0.05,18.9-0.26,28.34c-0.26,7.97,2.41,14.74,7.12,21c5.68,7.55,12.06,14.56,17.05,22.62
		c9.01,14.56,9.02,29.07-0.05,43.6c-3.26,5.22-7.07,10.04-10.92,14.83c-1.08,1.35-2.12,2.75-3.29,4.02
		c-7.79,8.52-10.67,18.47-9.97,29.98c0.6,9.87,1.18,19.81-0.41,29.7c-1.99,12.42-8.62,21.37-19.71,27.18
		c-8.03,4.21-16.7,6.72-25.43,8.63c-12.96,2.84-22.67,9.47-29.24,21.09c-3.01,5.33-6.67,10.33-10.39,15.2
		c-12.74,16.66-27,21.21-47.02,14.95c-7.66-2.39-15.2-5.18-22.73-7.96c-8.19-3.03-16.21-2.86-24.47-0.04
		c-10.99,3.76-21.68,8.45-33.36,10.17c-11.35,1.67-20.77-1.7-29.07-9.17c-6.76-6.08-12.06-13.41-16.38-21.25
		c-7.3-13.23-18.2-20.78-32.87-23.7c-7.4-1.47-14.59-3.86-21.48-7.1c-14.49-6.81-21.28-18.58-22.07-34.15
		C33.18,288.78,33.41,283.26,33.41,275.27z M347.5,122.9c-0.01-5.18,0.26-10.35-0.02-15.56c-0.58-10.63-3.49-14.94-13.73-18.39
		c-8.5-2.86-17.16-5.21-25.73-7.88c-11.2-3.49-20.28-9.94-26.97-19.65c-4.82-7-9.49-14.12-14.52-20.96
		c-7.22-9.82-12.28-11.54-24.07-8.01c-7.38,2.21-14.61,4.94-21.85,7.59c-13.1,4.79-26.13,4.85-39.25,0.05
		c-7.68-2.81-15.39-5.6-23.21-8.01c-9.9-3.04-15.77-1.07-21.89,7.14c-3.76,5.04-7.44,10.19-10.67,15.58
		c-9.16,15.32-22.39,24.77-39.72,28.86c-6.27,1.48-12.45,3.43-18.53,5.56c-9.31,3.26-12.6,7.76-12.82,17.55
		c-0.17,7.71-0.29,15.46,0.24,23.14c1.16,16.75-4.62,30.81-15.36,43.3c-4.61,5.37-9.02,10.92-12.72,17.01
		c-3.99,6.57-4.03,13.01-0.04,19.6c3.69,6.09,8.12,11.63,12.71,17.02c10.76,12.65,16.69,26.83,15.4,43.77
		c-0.56,7.36-0.43,14.8-0.29,22.2c0.2,10.37,3.39,14.87,13.23,18.21c8.49,2.88,17.15,5.25,25.73,7.88
		c11.38,3.49,20.62,9.97,27.4,19.82c4.73,6.87,9.29,13.88,14.23,20.59c7.7,10.46,12.72,12.04,25.26,8.06
		c7.5-2.38,14.88-5.12,22.31-7.74c12.19-4.3,24.35-4.29,36.55-0.02c8.32,2.91,16.59,5.99,25.01,8.57c9.4,2.87,15.25,0.89,21.13-6.92
		c4.06-5.4,7.97-10.96,11.5-16.73c8.85-14.46,21.36-23.63,37.84-27.65c6.72-1.64,13.35-3.7,19.88-5.98
		c9.32-3.25,12.59-7.76,12.8-17.56c0.17-7.71,0.3-15.46-0.24-23.14c-1.19-16.94,4.78-31.09,15.68-43.65
		c4.64-5.34,9.04-10.91,12.65-17.05c3.7-6.3,3.74-12.48,0.03-18.77c-3.62-6.13-8.16-11.58-12.59-17.1
		c-7.47-9.3-14.34-18.97-15.27-31.34C347.1,135.84,347.5,129.35,347.5,122.9z"/>
	<path d="M200.09,287.86c45.13-0.28,81.06-31.55,87.77-74.98c0.6-3.92,0.75-7.82,0.99-11.74c0.42-6.88,4.94-11.69,10.68-11.53
		c6.15,0.17,10.27,5.09,10.31,12.31c0.32,49.64-38.16,95.45-88.25,105.05c-56,10.74-111.37-23.94-125.92-78.88
		c-17.06-64.36,27.3-128.97,93.49-136.16c3.28-0.36,6.58-0.71,9.87-0.73c7.26-0.05,12.18,4.16,12.33,10.28
		c0.14,5.66-4.65,10.48-11.6,10.64c-10.52,0.25-20.6,2.2-30.44,5.84c-32.34,11.95-55.28,44.72-56.34,79.19
		c-1.28,41.83,27.55,80.22,70.24,89.09C189.26,287.48,195.37,288.06,200.09,287.86z"/>
	<path d="M270.24,142c0.09,1.92-1.16,4.22-2.8,6.42c-18.98,25.28-37.91,50.6-56.93,75.85c-5.56,7.39-11.71,7.85-18.31,1.48
		c-5.89-5.68-11.68-11.46-17.36-17.34c-5.04-5.22-5.33-11.21-1.06-15.58c4.51-4.61,10.52-4.27,15.88,0.95
		c2.48,2.41,5.05,4.76,7.32,7.36c2.22,2.54,3.51,1.97,5.36-0.52c15.4-20.69,30.91-41.3,46.41-61.92c1.41-1.88,2.8-3.85,4.54-5.4
		c3.23-2.87,7.08-3.4,10.99-1.59C268.18,133.5,270.2,136.7,270.24,142z"/>
</g>
</svg>
